<mxfile host="65bd71144e">
    <diagram id="cFgmJJYGMVt1y4sCqzDy" name="Page-1">
        <mxGraphModel dx="1186" dy="429" grid="1" gridSize="10" guides="1" tooltips="1" connect="1" arrows="1" fold="1" page="1" pageScale="1" pageWidth="850" pageHeight="1100" background="#ffffff" math="0" shadow="0">
            <root>
                <mxCell id="0"/>
                <mxCell id="1" parent="0"/>
                <mxCell id="8" style="edgeStyle=none;html=1;entryX=0.5;entryY=0;entryDx=0;entryDy=0;strokeColor=#333333;strokeWidth=3;" edge="1" parent="1" source="2" target="3">
                    <mxGeometry relative="1" as="geometry"/>
                </mxCell>
                <mxCell id="2" value="products-producer" style="rounded=0;whiteSpace=wrap;html=1;strokeColor=#333333;fontStyle=1" vertex="1" parent="1">
                    <mxGeometry x="360" y="100" width="120" height="60" as="geometry"/>
                </mxCell>
                <mxCell id="9" style="edgeStyle=orthogonalEdgeStyle;html=1;entryX=0.5;entryY=0;entryDx=0;entryDy=0;strokeColor=#333333;strokeWidth=3;" edge="1" parent="1" source="3" target="4">
                    <mxGeometry relative="1" as="geometry"/>
                </mxCell>
                <mxCell id="10" style="edgeStyle=orthogonalEdgeStyle;html=1;exitX=0.5;exitY=1;exitDx=0;exitDy=0;entryX=0.597;entryY=0.02;entryDx=0;entryDy=0;entryPerimeter=0;strokeColor=#333333;strokeWidth=3;" edge="1" parent="1" source="3" target="5">
                    <mxGeometry relative="1" as="geometry"/>
                </mxCell>
                <mxCell id="3" value="products - topic" style="rounded=1;whiteSpace=wrap;html=1;fillColor=#FFFFFF;fontColor=#333333;strokeColor=#333333;strokeWidth=2;fontStyle=1" vertex="1" parent="1">
                    <mxGeometry x="360" y="240" width="120" height="60" as="geometry"/>
                </mxCell>
                <mxCell id="11" style="edgeStyle=orthogonalEdgeStyle;html=1;entryX=0.5;entryY=0;entryDx=0;entryDy=0;strokeColor=#333333;strokeWidth=3;" edge="1" parent="1" source="4" target="6">
                    <mxGeometry relative="1" as="geometry"/>
                </mxCell>
                <mxCell id="4" value="b2b-products - queue" style="rounded=1;whiteSpace=wrap;html=1;fillColor=#FFFFFF;strokeColor=#333333;fontColor=#333333;strokeWidth=2;fontStyle=1" vertex="1" parent="1">
                    <mxGeometry x="250" y="370" width="130" height="60" as="geometry"/>
                </mxCell>
                <mxCell id="12" style="edgeStyle=orthogonalEdgeStyle;html=1;entryX=0.5;entryY=0;entryDx=0;entryDy=0;strokeColor=#333333;strokeWidth=3;" edge="1" parent="1" source="5" target="7">
                    <mxGeometry relative="1" as="geometry"/>
                </mxCell>
                <mxCell id="5" value="b2c-products - queue" style="rounded=1;whiteSpace=wrap;html=1;fontColor=#333333;fillColor=#FFFFFF;strokeColor=#333333;strokeWidth=2;fontStyle=1" vertex="1" parent="1">
                    <mxGeometry x="460" y="370" width="130" height="60" as="geometry"/>
                </mxCell>
                <mxCell id="6" value="b2b-products-consumer" style="rounded=0;whiteSpace=wrap;html=1;fontStyle=1" vertex="1" parent="1">
                    <mxGeometry x="237.5" y="500" width="155" height="60" as="geometry"/>
                </mxCell>
                <mxCell id="7" value="b2c-products-consumer" style="rounded=0;whiteSpace=wrap;html=1;fontStyle=1" vertex="1" parent="1">
                    <mxGeometry x="447.5" y="500" width="155" height="60" as="geometry"/>
                </mxCell>
            </root>
        </mxGraphModel>
    </diagram>
</mxfile>